<svg baseProfile="tiny"  version="1.2" viewBox="0 0 100 125" x="0px" xmlns="http://www.w3.org/2000/svg" y="0px" xml:space="preserve"><path d="M77.5,5c-5.514,0-10,4.486-10,10v2.5h-5V15c0-1.381-1.119-2.5-2.5-2.5h-7.5V10c0-1.381-1.119-2.5-2.5-2.5   s-2.5,1.119-2.5,2.5v2.5H40c-1.381,0-2.5,1.119-2.5,2.5v2.5h-5V15c0-1.381-1.119-2.5-2.5-2.5s-2.5,1.119-2.5,2.5v2.5H20   c-1.381,0-2.5,1.119-2.5,2.5v7.752c-5.699,1.161-10,6.211-10,12.248v17.5c0,6.037,4.301,11.087,10,12.248V90   c0,1.381,1.119,2.5,2.5,2.5h17.5c0,1.381,1.119,2.5,2.5,2.5h20c1.381,0,2.5-1.119,2.5-2.5H80c1.381,0,2.5-1.119,2.5-2.5V45.998   c5.699-1.161,10-6.211,10-12.248V20C92.5,11.729,85.771,5,77.5,5z M17.5,64.563c-2.908-1.033-5-3.804-5-7.063V40   c0-3.258,2.092-6.03,5-7.063V64.563z M42.5,20v-2.5h15V20v3.79c-2.347-0.833-4.871-1.29-7.5-1.29s-5.153,0.458-7.5,1.29V20z    M50,27.5c9.649,0,17.5,7.851,17.5,17.5S59.649,62.5,50,62.5S32.5,54.649,32.5,45S40.351,27.5,50,27.5z M57.5,66.21V70h-15v-3.79   c2.347,0.833,4.871,1.29,7.5,1.29S55.153,67.042,57.5,66.21z M22.5,22.5h15v3.802c-3.246,2.177-5.893,5.177-7.648,8.698H22.5V22.5z    M22.5,40h5.567C27.7,41.609,27.5,43.281,27.5,45s0.2,3.391,0.567,5H22.5V40z M22.5,55h7.352c1.755,3.521,4.402,6.521,7.648,8.698   V70h-5c-1.381,0-2.5,1.119-2.5,2.5V75h-7.5V55z M37.5,87.5h-15V80H30v2.5c0,1.381,1.119,2.5,2.5,2.5h5V87.5z M57.5,90h-15v-5h15V90   z M35,80v-5h30v5H35z M77.5,87.5h-15V85h5c1.381,0,2.5-1.119,2.5-2.5V80h7.5V87.5z M77.5,75H70v-2.5c0-1.381-1.119-2.5-2.5-2.5h-5   v-6.302c3.246-2.177,5.893-5.177,7.648-8.698H77.5V75z M77.5,50h-5.567c0.367-1.609,0.567-3.281,0.567-5s-0.2-3.391-0.567-5H77.5   V50z M77.5,35h-7.352c-1.755-3.521-4.402-6.521-7.648-8.698V22.5h15V35z M87.5,33.75c0,3.258-2.092,6.03-5,7.063V20   c0-1.381-1.119-2.5-2.5-2.5h-7.5V15c0-2.757,2.243-5,5-5c5.514,0,10,4.486,10,10V33.75z"/><path d="M50,47.5h7.5c1.381,0,2.5-1.119,2.5-2.5s-1.119-2.5-2.5-2.5h-5V35c0-1.381-1.119-2.5-2.5-2.5s-2.5,1.119-2.5,2.5v10   C47.5,46.381,48.619,47.5,50,47.5z"/><text fill="#000000" font-family="'Helvetica Neue', Helvetica, Arial-Unicode, Arial, Sans-serif" font-size="5px" font-weight="bold" x="0" y="115">Created by Arthur Shlain</text><text fill="#000000" font-family="'Helvetica Neue', Helvetica, Arial-Unicode, Arial, Sans-serif" font-size="5px" font-weight="bold" x="0" y="120">from the Noun Project</text></svg>